<mxfile host="app.diagrams.net" modified="2022-04-10T11:28:29.967Z" agent="5.0 (Windows NT 10.0; Win64; x64) AppleWebKit/537.36 (KHTML, like Gecko) Chrome/99.0.4844.84 Safari/537.36" etag="VgjHdUrWIxlGga2JPM4Q" version="16.0.0" type="github">
  <diagram id="C5RBs43oDa-KdzZeNtuy" name="Page-1">
    <mxGraphModel dx="2249" dy="794" grid="1" gridSize="10" guides="1" tooltips="1" connect="1" arrows="1" fold="1" page="1" pageScale="1" pageWidth="827" pageHeight="1169" math="0" shadow="0">
      <root>
        <mxCell id="WIyWlLk6GJQsqaUBKTNV-0" />
        <mxCell id="WIyWlLk6GJQsqaUBKTNV-1" parent="WIyWlLk6GJQsqaUBKTNV-0" />
        <mxCell id="wpsV9XXXUqMwkhc8yxzV-2" value="" style="edgeStyle=orthogonalEdgeStyle;rounded=0;orthogonalLoop=1;jettySize=auto;html=1;" edge="1" parent="WIyWlLk6GJQsqaUBKTNV-1" source="wpsV9XXXUqMwkhc8yxzV-0" target="wpsV9XXXUqMwkhc8yxzV-1">
          <mxGeometry relative="1" as="geometry" />
        </mxCell>
        <mxCell id="wpsV9XXXUqMwkhc8yxzV-0" value="start" style="ellipse;whiteSpace=wrap;html=1;" vertex="1" parent="WIyWlLk6GJQsqaUBKTNV-1">
          <mxGeometry x="310" y="40" width="120" height="80" as="geometry" />
        </mxCell>
        <mxCell id="wpsV9XXXUqMwkhc8yxzV-9" value="" style="edgeStyle=orthogonalEdgeStyle;rounded=0;orthogonalLoop=1;jettySize=auto;html=1;" edge="1" parent="WIyWlLk6GJQsqaUBKTNV-1" source="wpsV9XXXUqMwkhc8yxzV-1" target="wpsV9XXXUqMwkhc8yxzV-8">
          <mxGeometry relative="1" as="geometry" />
        </mxCell>
        <mxCell id="wpsV9XXXUqMwkhc8yxzV-1" value="&lt;font style=&quot;vertical-align: inherit&quot;&gt;&lt;font style=&quot;vertical-align: inherit&quot;&gt;Ð°rray [...]&lt;br&gt;result [...]&lt;br&gt;count = 0&lt;br&gt;&lt;/font&gt;&lt;/font&gt;" style="whiteSpace=wrap;html=1;" vertex="1" parent="WIyWlLk6GJQsqaUBKTNV-1">
          <mxGeometry x="310" y="140" width="120" height="60" as="geometry" />
        </mxCell>
        <mxCell id="wpsV9XXXUqMwkhc8yxzV-11" value="" style="edgeStyle=orthogonalEdgeStyle;rounded=0;orthogonalLoop=1;jettySize=auto;html=1;" edge="1" parent="WIyWlLk6GJQsqaUBKTNV-1" source="wpsV9XXXUqMwkhc8yxzV-8" target="wpsV9XXXUqMwkhc8yxzV-10">
          <mxGeometry relative="1" as="geometry" />
        </mxCell>
        <mxCell id="wpsV9XXXUqMwkhc8yxzV-24" value="" style="edgeStyle=orthogonalEdgeStyle;rounded=0;orthogonalLoop=1;jettySize=auto;html=1;" edge="1" parent="WIyWlLk6GJQsqaUBKTNV-1" source="wpsV9XXXUqMwkhc8yxzV-8" target="wpsV9XXXUqMwkhc8yxzV-23">
          <mxGeometry relative="1" as="geometry" />
        </mxCell>
        <mxCell id="wpsV9XXXUqMwkhc8yxzV-8" value="i &amp;lt; array.Length&amp;nbsp;" style="rhombus;whiteSpace=wrap;html=1;" vertex="1" parent="WIyWlLk6GJQsqaUBKTNV-1">
          <mxGeometry x="260" y="260" width="220" height="130" as="geometry" />
        </mxCell>
        <mxCell id="wpsV9XXXUqMwkhc8yxzV-13" style="edgeStyle=orthogonalEdgeStyle;rounded=0;orthogonalLoop=1;jettySize=auto;html=1;entryX=0.5;entryY=1;entryDx=0;entryDy=0;" edge="1" parent="WIyWlLk6GJQsqaUBKTNV-1" source="wpsV9XXXUqMwkhc8yxzV-10" target="wpsV9XXXUqMwkhc8yxzV-12">
          <mxGeometry relative="1" as="geometry" />
        </mxCell>
        <mxCell id="wpsV9XXXUqMwkhc8yxzV-15" value="YES" style="edgeLabel;html=1;align=center;verticalAlign=middle;resizable=0;points=[];" vertex="1" connectable="0" parent="wpsV9XXXUqMwkhc8yxzV-13">
          <mxGeometry x="-0.1902" y="2" relative="1" as="geometry">
            <mxPoint as="offset" />
          </mxGeometry>
        </mxCell>
        <mxCell id="wpsV9XXXUqMwkhc8yxzV-21" style="edgeStyle=orthogonalEdgeStyle;rounded=0;orthogonalLoop=1;jettySize=auto;html=1;" edge="1" parent="WIyWlLk6GJQsqaUBKTNV-1" source="wpsV9XXXUqMwkhc8yxzV-10">
          <mxGeometry relative="1" as="geometry">
            <mxPoint x="220" y="330" as="targetPoint" />
            <Array as="points">
              <mxPoint x="220" y="625" />
            </Array>
          </mxGeometry>
        </mxCell>
        <mxCell id="wpsV9XXXUqMwkhc8yxzV-22" value="NO" style="edgeLabel;html=1;align=center;verticalAlign=middle;resizable=0;points=[];" vertex="1" connectable="0" parent="wpsV9XXXUqMwkhc8yxzV-21">
          <mxGeometry x="-0.0567" y="-2" relative="1" as="geometry">
            <mxPoint as="offset" />
          </mxGeometry>
        </mxCell>
        <mxCell id="wpsV9XXXUqMwkhc8yxzV-10" value="array[i].Length &amp;lt;= 3" style="rhombus;whiteSpace=wrap;html=1;" vertex="1" parent="WIyWlLk6GJQsqaUBKTNV-1">
          <mxGeometry x="260" y="560" width="220" height="130" as="geometry" />
        </mxCell>
        <mxCell id="wpsV9XXXUqMwkhc8yxzV-19" style="edgeStyle=orthogonalEdgeStyle;rounded=0;orthogonalLoop=1;jettySize=auto;html=1;entryX=0;entryY=0.5;entryDx=0;entryDy=0;" edge="1" parent="WIyWlLk6GJQsqaUBKTNV-1" source="wpsV9XXXUqMwkhc8yxzV-12" target="wpsV9XXXUqMwkhc8yxzV-8">
          <mxGeometry relative="1" as="geometry">
            <Array as="points">
              <mxPoint y="325" />
            </Array>
          </mxGeometry>
        </mxCell>
        <mxCell id="wpsV9XXXUqMwkhc8yxzV-12" value="result[count] = array[i]&lt;br&gt;count ++" style="rounded=0;whiteSpace=wrap;html=1;" vertex="1" parent="WIyWlLk6GJQsqaUBKTNV-1">
          <mxGeometry x="-90" y="420" width="160" height="100" as="geometry" />
        </mxCell>
        <mxCell id="wpsV9XXXUqMwkhc8yxzV-23" value="result [ ...]" style="ellipse;whiteSpace=wrap;html=1;" vertex="1" parent="WIyWlLk6GJQsqaUBKTNV-1">
          <mxGeometry x="610" y="295" width="120" height="60" as="geometry" />
        </mxCell>
      </root>
    </mxGraphModel>
  </diagram>
</mxfile>
